<svg xmlns="http://www.w3.org/2000/svg" xmlns:xlink="http://www.w3.org/1999/xlink" width="1366" zoomAndPan="magnify" viewBox="0 0 1024.5 576" height="768" preserveAspectRatio="xMidYMid meet" version="1.0"><defs><filter x="0%" y="0%" width="100%" height="100%" id="7b9de10a29"><feColorMatrix values="0 0 0 0 1 0 0 0 0 1 0 0 0 0 1 0 0 0 1 0" color-interpolation-filters="sRGB"/></filter><clipPath id="199e9db903"><path d="M 571 0.140625 L 1024 0.140625 L 1024 517 L 571 517 Z M 571 0.140625 " clip-rule="nonzero"/></clipPath><mask id="981e5f9418"><g filter="url(#7b9de10a29)"><rect x="-102.45" width="1229.4" fill="#000000" y="-57.6" height="691.2" fill-opacity="0.37"/></g></mask><clipPath id="209fc9b439"><path d="M 159 0.140625 L 453 0.140625 L 453 427 L 159 427 Z M 159 0.140625 " clip-rule="nonzero"/></clipPath><clipPath id="2e4f937711"><path d="M -5.132812 66.03125 L 537.796875 -136.476562 L 706.507812 315.851562 L 163.574219 518.355469 Z M -5.132812 66.03125 " clip-rule="nonzero"/></clipPath><clipPath id="3713ab4d2e"><path d="M -5.132812 66.03125 L 537.796875 -136.476562 L 706.507812 315.851562 L 163.574219 518.355469 Z M -5.132812 66.03125 " clip-rule="nonzero"/></clipPath><clipPath id="a16148e2e2"><path d="M 75.179688 36.074219 L 537.816406 -136.480469 L 706.585938 316.003906 L 243.949219 488.5625 Z M 75.179688 36.074219 " clip-rule="nonzero"/></clipPath><clipPath id="d64d2d3a9f"><path d="M 75.179688 36.074219 L 537.816406 -136.480469 L 706.507812 315.796875 L 243.871094 488.351562 Z M 75.179688 36.074219 " clip-rule="nonzero"/></clipPath><clipPath id="adf6565303"><path d="M 345 0.140625 L 373 0.140625 L 373 91 L 345 91 Z M 345 0.140625 " clip-rule="nonzero"/></clipPath><clipPath id="1ba2cff460"><path d="M -5.132812 66.03125 L 537.796875 -136.476562 L 706.507812 315.851562 L 163.574219 518.355469 Z M -5.132812 66.03125 " clip-rule="nonzero"/></clipPath><clipPath id="8df261b9c3"><path d="M -5.132812 66.03125 L 537.796875 -136.476562 L 706.507812 315.851562 L 163.574219 518.355469 Z M -5.132812 66.03125 " clip-rule="nonzero"/></clipPath><clipPath id="27e195945e"><path d="M 222 78 L 316 78 L 316 136 L 222 136 Z M 222 78 " clip-rule="nonzero"/></clipPath><clipPath id="cff7ae38bd"><path d="M -5.132812 66.03125 L 537.796875 -136.476562 L 706.507812 315.851562 L 163.574219 518.355469 Z M -5.132812 66.03125 " clip-rule="nonzero"/></clipPath><clipPath id="95901df2f0"><path d="M -5.132812 66.03125 L 537.796875 -136.476562 L 706.507812 315.851562 L 163.574219 518.355469 Z M -5.132812 66.03125 " clip-rule="nonzero"/></clipPath><clipPath id="b16c7310cb"><path d="M 376 28 L 387 28 L 387 93 L 376 93 Z M 376 28 " clip-rule="nonzero"/></clipPath><clipPath id="6817b2e30b"><path d="M -5.132812 66.03125 L 537.796875 -136.476562 L 706.507812 315.851562 L 163.574219 518.355469 Z M -5.132812 66.03125 " clip-rule="nonzero"/></clipPath><clipPath id="ba2a1c322a"><path d="M -5.132812 66.03125 L 537.796875 -136.476562 L 706.507812 315.851562 L 163.574219 518.355469 Z M -5.132812 66.03125 " clip-rule="nonzero"/></clipPath><clipPath id="2c4876099b"><path d="M 418 20 L 451 20 L 451 91 L 418 91 Z M 418 20 " clip-rule="nonzero"/></clipPath><clipPath id="9e1fa42a40"><path d="M -5.132812 66.03125 L 537.796875 -136.476562 L 706.507812 315.851562 L 163.574219 518.355469 Z M -5.132812 66.03125 " clip-rule="nonzero"/></clipPath><clipPath id="d6159a2772"><path d="M -5.132812 66.03125 L 537.796875 -136.476562 L 706.507812 315.851562 L 163.574219 518.355469 Z M -5.132812 66.03125 " clip-rule="nonzero"/></clipPath><clipPath id="3af47babad"><path d="M 290 88 L 328 88 L 328 120 L 290 120 Z M 290 88 " clip-rule="nonzero"/></clipPath><clipPath id="6a1974b674"><path d="M -5.132812 66.03125 L 537.796875 -136.476562 L 706.507812 315.851562 L 163.574219 518.355469 Z M -5.132812 66.03125 " clip-rule="nonzero"/></clipPath><clipPath id="ad0f668ab7"><path d="M -5.132812 66.03125 L 537.796875 -136.476562 L 706.507812 315.851562 L 163.574219 518.355469 Z M -5.132812 66.03125 " clip-rule="nonzero"/></clipPath><clipPath id="62587460b4"><path d="M 210 123 L 314 123 L 314 154 L 210 154 Z M 210 123 " clip-rule="nonzero"/></clipPath><clipPath id="3b4a05a617"><path d="M -5.132812 66.03125 L 537.796875 -136.476562 L 706.507812 315.851562 L 163.574219 518.355469 Z M -5.132812 66.03125 " clip-rule="nonzero"/></clipPath><clipPath id="d9f167c77f"><path d="M -5.132812 66.03125 L 537.796875 -136.476562 L 706.507812 315.851562 L 163.574219 518.355469 Z M -5.132812 66.03125 " clip-rule="nonzero"/></clipPath><clipPath id="3e9beb07f7"><path d="M 199 158 L 313 158 L 313 169 L 199 169 Z M 199 158 " clip-rule="nonzero"/></clipPath><clipPath id="7e8a2fabac"><path d="M -5.132812 66.03125 L 537.796875 -136.476562 L 706.507812 315.851562 L 163.574219 518.355469 Z M -5.132812 66.03125 " clip-rule="nonzero"/></clipPath><clipPath id="95f9a1a12d"><path d="M -5.132812 66.03125 L 537.796875 -136.476562 L 706.507812 315.851562 L 163.574219 518.355469 Z M -5.132812 66.03125 " clip-rule="nonzero"/></clipPath><clipPath id="2257ab1cb9"><path d="M 430 74 L 449 74 L 449 99 L 430 99 Z M 430 74 " clip-rule="nonzero"/></clipPath><clipPath id="dc1d4e5e2b"><path d="M -5.132812 66.03125 L 537.796875 -136.476562 L 706.507812 315.851562 L 163.574219 518.355469 Z M -5.132812 66.03125 " clip-rule="nonzero"/></clipPath><clipPath id="11d4234373"><path d="M -5.132812 66.03125 L 537.796875 -136.476562 L 706.507812 315.851562 L 163.574219 518.355469 Z M -5.132812 66.03125 " clip-rule="nonzero"/></clipPath><clipPath id="f4d5241c52"><path d="M 326 97 L 447 97 L 447 242 L 326 242 Z M 326 97 " clip-rule="nonzero"/></clipPath><clipPath id="86169f14fe"><path d="M -5.132812 66.03125 L 537.796875 -136.476562 L 706.507812 315.851562 L 163.574219 518.355469 Z M -5.132812 66.03125 " clip-rule="nonzero"/></clipPath><clipPath id="a445d35041"><path d="M -5.132812 66.03125 L 537.796875 -136.476562 L 706.507812 315.851562 L 163.574219 518.355469 Z M -5.132812 66.03125 " clip-rule="nonzero"/></clipPath><clipPath id="8eb218182a"><path d="M 270 225 L 329 225 L 329 257 L 270 257 Z M 270 225 " clip-rule="nonzero"/></clipPath><clipPath id="bbdb9261bd"><path d="M -5.132812 66.03125 L 537.796875 -136.476562 L 706.507812 315.851562 L 163.574219 518.355469 Z M -5.132812 66.03125 " clip-rule="nonzero"/></clipPath><clipPath id="3740ce0e7a"><path d="M -5.132812 66.03125 L 537.796875 -136.476562 L 706.507812 315.851562 L 163.574219 518.355469 Z M -5.132812 66.03125 " clip-rule="nonzero"/></clipPath><clipPath id="928bea5ddd"><path d="M 280 240 L 324 240 L 324 339 L 280 339 Z M 280 240 " clip-rule="nonzero"/></clipPath><clipPath id="b495e24399"><path d="M -5.132812 66.03125 L 537.796875 -136.476562 L 706.507812 315.851562 L 163.574219 518.355469 Z M -5.132812 66.03125 " clip-rule="nonzero"/></clipPath><clipPath id="1b46f2084b"><path d="M -5.132812 66.03125 L 537.796875 -136.476562 L 706.507812 315.851562 L 163.574219 518.355469 Z M -5.132812 66.03125 " clip-rule="nonzero"/></clipPath><clipPath id="9f171aa41d"><path d="M 325 244 L 345 244 L 345 293 L 325 293 Z M 325 244 " clip-rule="nonzero"/></clipPath><clipPath id="0c6f7d9fdc"><path d="M -5.132812 66.03125 L 537.796875 -136.476562 L 706.507812 315.851562 L 163.574219 518.355469 Z M -5.132812 66.03125 " clip-rule="nonzero"/></clipPath><clipPath id="7cd1342eaa"><path d="M -5.132812 66.03125 L 537.796875 -136.476562 L 706.507812 315.851562 L 163.574219 518.355469 Z M -5.132812 66.03125 " clip-rule="nonzero"/></clipPath><clipPath id="d67b104d7b"><path d="M 438 222 L 453 222 L 453 242 L 438 242 Z M 438 222 " clip-rule="nonzero"/></clipPath><clipPath id="b0e889fc35"><path d="M -5.132812 66.03125 L 537.796875 -136.476562 L 706.507812 315.851562 L 163.574219 518.355469 Z M -5.132812 66.03125 " clip-rule="nonzero"/></clipPath><clipPath id="a3ad191877"><path d="M -5.132812 66.03125 L 537.796875 -136.476562 L 706.507812 315.851562 L 163.574219 518.355469 Z M -5.132812 66.03125 " clip-rule="nonzero"/></clipPath><clipPath id="af28f81c5b"><path d="M 352 254 L 360 254 L 360 274 L 352 274 Z M 352 254 " clip-rule="nonzero"/></clipPath><clipPath id="ce4ba659e7"><path d="M -5.132812 66.03125 L 537.796875 -136.476562 L 706.507812 315.851562 L 163.574219 518.355469 Z M -5.132812 66.03125 " clip-rule="nonzero"/></clipPath><clipPath id="b2427a0a02"><path d="M -5.132812 66.03125 L 537.796875 -136.476562 L 706.507812 315.851562 L 163.574219 518.355469 Z M -5.132812 66.03125 " clip-rule="nonzero"/></clipPath><clipPath id="89efa7a9eb"><path d="M 398 252 L 418 252 L 418 300 L 398 300 Z M 398 252 " clip-rule="nonzero"/></clipPath><clipPath id="4600b06f8b"><path d="M -5.132812 66.03125 L 537.796875 -136.476562 L 706.507812 315.851562 L 163.574219 518.355469 Z M -5.132812 66.03125 " clip-rule="nonzero"/></clipPath><clipPath id="5938a43f5c"><path d="M -5.132812 66.03125 L 537.796875 -136.476562 L 706.507812 315.851562 L 163.574219 518.355469 Z M -5.132812 66.03125 " clip-rule="nonzero"/></clipPath><clipPath id="6897affaee"><path d="M 431 240 L 453 240 L 453 274 L 431 274 Z M 431 240 " clip-rule="nonzero"/></clipPath><clipPath id="fcc694b372"><path d="M -5.132812 66.03125 L 537.796875 -136.476562 L 706.507812 315.851562 L 163.574219 518.355469 Z M -5.132812 66.03125 " clip-rule="nonzero"/></clipPath><clipPath id="71a8ba5570"><path d="M -5.132812 66.03125 L 537.796875 -136.476562 L 706.507812 315.851562 L 163.574219 518.355469 Z M -5.132812 66.03125 " clip-rule="nonzero"/></clipPath><clipPath id="cf98b54a99"><path d="M 415 248 L 453 248 L 453 325 L 415 325 Z M 415 248 " clip-rule="nonzero"/></clipPath><clipPath id="7dbb661057"><path d="M -5.132812 66.03125 L 537.796875 -136.476562 L 706.507812 315.851562 L 163.574219 518.355469 Z M -5.132812 66.03125 " clip-rule="nonzero"/></clipPath><clipPath id="1c509bbee0"><path d="M -5.132812 66.03125 L 537.796875 -136.476562 L 706.507812 315.851562 L 163.574219 518.355469 Z M -5.132812 66.03125 " clip-rule="nonzero"/></clipPath><clipPath id="f1d292e4f2"><path d="M 64 218 L 103 218 L 103 254 L 64 254 Z M 64 218 " clip-rule="nonzero"/></clipPath><clipPath id="44bbac1615"><path d="M -5.132812 66.03125 L 537.796875 -136.476562 L 706.507812 315.851562 L 163.574219 518.355469 Z M -5.132812 66.03125 " clip-rule="nonzero"/></clipPath><clipPath id="db3306617b"><path d="M -5.132812 66.03125 L 537.796875 -136.476562 L 706.507812 315.851562 L 163.574219 518.355469 Z M -5.132812 66.03125 " clip-rule="nonzero"/></clipPath><clipPath id="2464b68bca"><path d="M 103 292 L 120 292 L 120 309 L 103 309 Z M 103 292 " clip-rule="nonzero"/></clipPath><clipPath id="fe9c8ce35a"><path d="M -5.132812 66.03125 L 537.796875 -136.476562 L 706.507812 315.851562 L 163.574219 518.355469 Z M -5.132812 66.03125 " clip-rule="nonzero"/></clipPath><clipPath id="d9e31bf8f5"><path d="M -5.132812 66.03125 L 537.796875 -136.476562 L 706.507812 315.851562 L 163.574219 518.355469 Z M -5.132812 66.03125 " clip-rule="nonzero"/></clipPath><clipPath id="054b871ae6"><rect x="0" width="453" y="0" height="517"/></clipPath><clipPath id="d48bc90127"><path d="M 0 0.140625 L 343 0.140625 L 343 344 L 0 344 Z M 0 0.140625 " clip-rule="nonzero"/></clipPath><mask id="d7d7a1e001"><g filter="url(#7b9de10a29)"><rect x="-102.45" width="1229.4" fill="#000000" y="-57.6" height="691.2" fill-opacity="0.37"/></g></mask><clipPath id="c5cacf4f5e"><path d="M 0 0.140625 L 290 0.140625 L 290 290 L 0 290 Z M 0 0.140625 " clip-rule="nonzero"/></clipPath><clipPath id="105a5013df"><path d="M -341.792969 -101.613281 L 218.449219 -249.628906 L 341.765625 217.121094 L -218.480469 365.136719 Z M -341.792969 -101.613281 " clip-rule="nonzero"/></clipPath><clipPath id="5da3e92eed"><path d="M -341.792969 -101.613281 L 218.449219 -249.628906 L 341.765625 217.121094 L -218.480469 365.136719 Z M -341.792969 -101.613281 " clip-rule="nonzero"/></clipPath><clipPath id="9a98d26131"><path d="M -258.917969 -123.507812 L 218.46875 -249.632812 L 341.828125 217.28125 L -135.558594 343.40625 Z M -258.917969 -123.507812 " clip-rule="nonzero"/></clipPath><clipPath id="5de69c0780"><path d="M -258.917969 -123.507812 L 218.46875 -249.632812 L 341.769531 217.066406 L -135.617188 343.191406 Z M -258.917969 -123.507812 " clip-rule="nonzero"/></clipPath><clipPath id="b28159ab86"><path d="M 0 0.140625 L 100 0.140625 L 100 111 L 0 111 Z M 0 0.140625 " clip-rule="nonzero"/></clipPath><clipPath id="652e3877ff"><path d="M -341.792969 -101.613281 L 218.449219 -249.628906 L 341.765625 217.121094 L -218.480469 365.136719 Z M -341.792969 -101.613281 " clip-rule="nonzero"/></clipPath><clipPath id="80463d5aaa"><path d="M -341.792969 -101.613281 L 218.449219 -249.628906 L 341.765625 217.121094 L -218.480469 365.136719 Z M -341.792969 -101.613281 " clip-rule="nonzero"/></clipPath><clipPath id="d8dc03e182"><path d="M 118 0.140625 L 137 0.140625 L 137 10 L 118 10 Z M 118 0.140625 " clip-rule="nonzero"/></clipPath><clipPath id="b7b189625c"><path d="M -341.792969 -101.613281 L 218.449219 -249.628906 L 341.765625 217.121094 L -218.480469 365.136719 Z M -341.792969 -101.613281 " clip-rule="nonzero"/></clipPath><clipPath id="408b890ddb"><path d="M -341.792969 -101.613281 L 218.449219 -249.628906 L 341.765625 217.121094 L -218.480469 365.136719 Z M -341.792969 -101.613281 " clip-rule="nonzero"/></clipPath><clipPath id="3f37750507"><path d="M 122 11 L 181 11 L 181 24 L 122 24 Z M 122 11 " clip-rule="nonzero"/></clipPath><clipPath id="9dced0c8e5"><path d="M -341.792969 -101.613281 L 218.449219 -249.628906 L 341.765625 217.121094 L -218.480469 365.136719 Z M -341.792969 -101.613281 " clip-rule="nonzero"/></clipPath><clipPath id="23a29adc98"><path d="M -341.792969 -101.613281 L 218.449219 -249.628906 L 341.765625 217.121094 L -218.480469 365.136719 Z M -341.792969 -101.613281 " clip-rule="nonzero"/></clipPath><clipPath id="e98b397ae7"><path d="M 122 34 L 156 34 L 156 40 L 122 40 Z M 122 34 " clip-rule="nonzero"/></clipPath><clipPath id="822a8f831a"><path d="M -341.792969 -101.613281 L 218.449219 -249.628906 L 341.765625 217.121094 L -218.480469 365.136719 Z M -341.792969 -101.613281 " clip-rule="nonzero"/></clipPath><clipPath id="e6f529c5f4"><path d="M -341.792969 -101.613281 L 218.449219 -249.628906 L 341.765625 217.121094 L -218.480469 365.136719 Z M -341.792969 -101.613281 " clip-rule="nonzero"/></clipPath><clipPath id="ca01a8fdad"><path d="M 117 50 L 223 50 L 223 72 L 117 72 Z M 117 50 " clip-rule="nonzero"/></clipPath><clipPath id="f9ef52a1ec"><path d="M -341.792969 -101.613281 L 218.449219 -249.628906 L 341.765625 217.121094 L -218.480469 365.136719 Z M -341.792969 -101.613281 " clip-rule="nonzero"/></clipPath><clipPath id="d22f84b969"><path d="M -341.792969 -101.613281 L 218.449219 -249.628906 L 341.765625 217.121094 L -218.480469 365.136719 Z M -341.792969 -101.613281 " clip-rule="nonzero"/></clipPath><clipPath id="27ebf75f14"><path d="M 83 97 L 112 97 L 112 120 L 83 120 Z M 83 97 " clip-rule="nonzero"/></clipPath><clipPath id="6e74cf98fa"><path d="M -341.792969 -101.613281 L 218.449219 -249.628906 L 341.765625 217.121094 L -218.480469 365.136719 Z M -341.792969 -101.613281 " clip-rule="nonzero"/></clipPath><clipPath id="4a0ff79ca9"><path d="M -341.792969 -101.613281 L 218.449219 -249.628906 L 341.765625 217.121094 L -218.480469 365.136719 Z M -341.792969 -101.613281 " clip-rule="nonzero"/></clipPath><clipPath id="be3a3421e9"><path d="M 0 121 L 3 121 L 3 141 L 0 141 Z M 0 121 " clip-rule="nonzero"/></clipPath><clipPath id="4d44cdc789"><path d="M -341.792969 -101.613281 L 218.449219 -249.628906 L 341.765625 217.121094 L -218.480469 365.136719 Z M -341.792969 -101.613281 " clip-rule="nonzero"/></clipPath><clipPath id="b203a0543a"><path d="M -341.792969 -101.613281 L 218.449219 -249.628906 L 341.765625 217.121094 L -218.480469 365.136719 Z M -341.792969 -101.613281 " clip-rule="nonzero"/></clipPath><clipPath id="f502f9e09e"><path d="M 41 124 L 56 124 L 56 172 L 41 172 Z M 41 124 " clip-rule="nonzero"/></clipPath><clipPath id="8778fd44af"><path d="M -341.792969 -101.613281 L 218.449219 -249.628906 L 341.765625 217.121094 L -218.480469 365.136719 Z M -341.792969 -101.613281 " clip-rule="nonzero"/></clipPath><clipPath id="55144cfd2c"><path d="M -341.792969 -101.613281 L 218.449219 -249.628906 L 341.765625 217.121094 L -218.480469 365.136719 Z M -341.792969 -101.613281 " clip-rule="nonzero"/></clipPath><clipPath id="ab89581513"><path d="M 75 114 L 104 114 L 104 151 L 75 151 Z M 75 114 " clip-rule="nonzero"/></clipPath><clipPath id="8dcbffe0b8"><path d="M -341.792969 -101.613281 L 218.449219 -249.628906 L 341.765625 217.121094 L -218.480469 365.136719 Z M -341.792969 -101.613281 " clip-rule="nonzero"/></clipPath><clipPath id="14effbd153"><path d="M -341.792969 -101.613281 L 218.449219 -249.628906 L 341.765625 217.121094 L -218.480469 365.136719 Z M -341.792969 -101.613281 " clip-rule="nonzero"/></clipPath><clipPath id="540169052a"><path d="M 58 121 L 112 121 L 112 204 L 58 204 Z M 58 121 " clip-rule="nonzero"/></clipPath><clipPath id="05cd87d7f5"><path d="M -341.792969 -101.613281 L 218.449219 -249.628906 L 341.765625 217.121094 L -218.480469 365.136719 Z M -341.792969 -101.613281 " clip-rule="nonzero"/></clipPath><clipPath id="95449189bd"><path d="M -341.792969 -101.613281 L 218.449219 -249.628906 L 341.765625 217.121094 L -218.480469 365.136719 Z M -341.792969 -101.613281 " clip-rule="nonzero"/></clipPath><clipPath id="ab70465d2c"><path d="M 292 168 L 321 168 L 321 197 L 292 197 Z M 292 168 " clip-rule="nonzero"/></clipPath><clipPath id="c5c26220ee"><path d="M -341.792969 -101.613281 L 218.449219 -249.628906 L 341.765625 217.121094 L -218.480469 365.136719 Z M -341.792969 -101.613281 " clip-rule="nonzero"/></clipPath><clipPath id="b79b213d8c"><path d="M -341.792969 -101.613281 L 218.449219 -249.628906 L 341.765625 217.121094 L -218.480469 365.136719 Z M -341.792969 -101.613281 " clip-rule="nonzero"/></clipPath><clipPath id="16820e3f7a"><rect x="0" width="343" y="0" height="344"/></clipPath></defs><g clip-path="url(#199e9db903)"><g mask="url(#981e5f9418)"><g transform="matrix(1, 0, 0, 1, 571, 0.000000000000055289)"><g clip-path="url(#054b871ae6)"><g clip-path="url(#209fc9b439)"><g clip-path="url(#2e4f937711)"><g clip-path="url(#3713ab4d2e)"><g clip-path="url(#a16148e2e2)"><g clip-path="url(#d64d2d3a9f)"><path fill="#e7eef6" d="M 375.558594 -45.371094 C 452.503906 -32.488281 470.554688 -26.582031 492.058594 -7.730469 C 498.953125 -1.570312 501.464844 2.089844 503.515625 10.050781 C 506.945312 22.328125 504.714844 30.511719 494.207031 45.457031 C 489.664062 51.746094 482.792969 61.664062 478.902344 67.246094 C 474.8125 72.90625 469.984375 82.75 467.957031 89.019531 C 462.203125 107.476562 464.195312 107.882812 481.253906 91.410156 C 499.042969 74.4375 523.6875 58.582031 541.8125 52.972656 C 554.941406 48.761719 558.746094 48.496094 568.164062 50.953125 C 574.207031 52.375 582.816406 56.976562 587.445312 60.761719 C 595.519531 67.628906 596.398438 69.371094 607.328125 99.292969 C 617.757812 128.484375 618.707031 132.265625 619.53125 151.714844 C 621.460938 198.777344 609.011719 216.515625 572.328125 219.171875 C 555.066406 220.328125 531.574219 214.617188 486.054688 198.515625 C 457.351562 188.085938 451.683594 187.667969 457.285156 195.917969 C 463.667969 205.027344 478.945312 213.339844 499.292969 218.617188 C 520.949219 224.324219 533.03125 230.84375 547.136719 244.648438 C 557.574219 254.769531 560.5625 262.15625 560.65625 278.429688 C 560.582031 293.621094 554.5625 306.433594 535.398438 330.8125 C 520.601562 349.65625 514.292969 356.144531 492.695312 373.386719 C 473.019531 389 464.371094 392.914062 448.703125 392.785156 C 420.433594 392.757812 413.445312 385.71875 401.09375 346.445312 C 396.707031 332.230469 392.132812 312.570312 390.839844 302.945312 C 388.457031 283.617188 385.074219 272.703125 381.375 272.019531 C 378.148438 271.382812 375.863281 295.4375 377.085938 318.414062 C 378.125 342.148438 376.851562 348.597656 366.839844 369.789062 C 355.160156 393.902344 344.410156 403.886719 326.210938 407.457031 C 314.847656 409.628906 286.878906 396.855469 275.191406 383.984375 C 270.511719 378.839844 256.425781 367.554688 243.792969 358.941406 C 211.261719 336.386719 204.117188 328.941406 198.78125 310.945312 C 193.898438 294.15625 195.628906 285.242188 206.921875 265.636719 C 217.460938 247.695312 228.671875 235.242188 238.476562 231.355469 C 242.914062 229.699219 256.472656 226.019531 268.496094 223.144531 C 291.328125 217.84375 309.101562 210.066406 313.5 203.371094 C 315.949219 199.472656 315.875 199.269531 311.367188 198.882812 C 308.898438 198.425781 299.296875 200.402344 290.121094 202.902344 C 267.183594 209.160156 244.027344 212.976562 227.476562 212.945312 C 209.761719 212.886719 189.375 204.414062 183.371094 194.476562 C 172.292969 175.863281 172.175781 155.230469 182.671875 118.695312 C 191.238281 89.308594 195.589844 79.417969 204.402344 68.550781 C 208.3125 63.644531 217.175781 52.296875 224.273438 42.988281 C 235.082031 28.851562 238.058594 26.363281 243.425781 25.96875 C 253.476562 25.207031 258.488281 26.324219 269.589844 32.0625 C 281.871094 38.507812 287.003906 43.023438 302.84375 61.46875 C 309.65625 69.265625 319.011719 77.722656 323.742188 80.550781 C 328.675781 83.308594 332.953125 86.765625 333.402344 87.976562 C 334.457031 90.800781 341.984375 93.734375 343.070312 91.722656 C 343.25 90.964844 338.507812 80.097656 332.28125 67.71875 C 317.394531 37.664062 310.039062 8.703125 312.019531 -12.480469 C 313.867188 -31.546875 318.660156 -36.554688 342.558594 -44.546875 C 353.320312 -48.332031 357.679688 -48.351562 375.558594 -45.371094 Z M 311.148438 -48.683594 C 294.273438 -36.648438 289.03125 -7.582031 298.660156 20.070312 C 300.5625 25.792969 302.664062 33.277344 303.0625 36.804688 C 303.957031 42.902344 303.753906 42.980469 296.640625 34.375 C 281.359375 16.1875 253.535156 7.492188 233.769531 14.867188 C 225.425781 17.75 221.792969 20.941406 212.652344 32.160156 C 206.71875 39.65625 197.050781 51.304688 191.21875 57.84375 C 177.261719 73.386719 168.9375 94.183594 162.726562 128.660156 C 158.195312 154.703125 158.820312 170.550781 165.441406 188.296875 C 170.105469 200.800781 172.566406 204.9375 180.089844 211.550781 C 189.09375 219.679688 200.195312 225.417969 209.160156 226.667969 C 213.265625 227.207031 212.757812 228.3125 204.882812 236.761719 C 192.289062 250.421875 184.679688 264.515625 180.445312 281.488281 C 176.027344 299.214844 177.390625 312.722656 184.769531 328.808594 C 191.769531 343.882812 201.980469 353.402344 233.8125 375.296875 C 246.996094 384.164062 260.179688 394.871094 263.246094 398.78125 C 271.816406 410.054688 293.136719 421.632812 313.382812 426.027344 C 319.351562 427.246094 324.566406 426.449219 336.1875 421.882812 C 344.457031 418.800781 352.878906 414.28125 355.050781 412.09375 C 356.945312 409.777344 364.292969 398.078125 371.015625 385.921875 L 383.601562 364.226562 L 388.117188 376.328125 C 399.023438 405.570312 422.410156 415.914062 458.675781 407.210938 C 477.65625 402.660156 488.347656 396.832031 512.742188 377.859375 C 537.792969 358.175781 562.714844 327.054688 573.414062 302.160156 C 582.039062 282.171875 578.898438 250.953125 567.222656 240.601562 C 563.425781 237.195312 563.351562 236.992188 567.304688 237.128906 C 583.808594 237.632812 607.5 229.714844 620.015625 219.535156 C 636.238281 206.363281 641.238281 185.890625 637.597656 148.421875 C 635.769531 129.347656 633.890625 122.464844 623.085938 92.269531 C 611.78125 61.335938 609.796875 57.25 602.804688 50.210938 C 591.941406 39.558594 578.703125 33.011719 564.621094 31.601562 C 554.296875 30.398438 549.355469 31.320312 535.441406 36.511719 L 518.703125 42.753906 L 522.375 31.046875 C 528.53125 10.601562 522.164062 -5.863281 500.808594 -26.15625 C 477.699219 -48.085938 442.699219 -59.382812 377.613281 -66.351562 C 356.152344 -68.457031 354.992188 -68.484375 337.925781 -61.886719 C 328.046875 -58.203125 316.195312 -52.402344 311.148438 -48.683594 " fill-opacity="1" fill-rule="evenodd"/></g></g></g></g></g><g clip-path="url(#adf6565303)"><g clip-path="url(#1ba2cff460)"><g clip-path="url(#8df261b9c3)"><path fill="#e7eef6" d="M 345.300781 -1.460938 C 343.820312 10.578125 349.070312 33.890625 360.050781 63.332031 C 373.390625 99.710938 377.695312 100.171875 366.070312 64.074219 C 361.460938 49.253906 355.804688 27.929688 353.757812 16.289062 C 349.191406 -7.046875 346.679688 -12.546875 345.300781 -1.460938 " fill-opacity="1" fill-rule="evenodd"/></g></g></g><g clip-path="url(#27e195945e)"><g clip-path="url(#cff7ae38bd)"><g clip-path="url(#95901df2f0)"><path fill="#e7eef6" d="M 222.722656 80.097656 C 224.875 87.101562 308.777344 137.132812 314.425781 135.027344 C 318.460938 133.523438 313.53125 128.929688 299.9375 122.054688 C 285.71875 114.722656 240.667969 88.792969 228.0625 80.863281 C 223.253906 77.828125 221.742188 77.472656 222.722656 80.097656 " fill-opacity="1" fill-rule="evenodd"/></g></g></g><g clip-path="url(#b16c7310cb)"><g clip-path="url(#6817b2e30b)"><g clip-path="url(#ba2a1c322a)"><path fill="#e7eef6" d="M 376.296875 35.449219 C 375.980469 59.230469 381.363281 93.980469 385.191406 92.550781 C 386.402344 92.101562 386.382812 87.742188 385.386719 82.601562 C 384.460938 77.660156 383.300781 65.917969 382.636719 56.75 C 381.140625 33.640625 380.320312 27.746094 378.101562 28.574219 C 377.089844 28.949219 376.378906 31.972656 376.296875 35.449219 " fill-opacity="1" fill-rule="evenodd"/></g></g></g><g clip-path="url(#2c4876099b)"><g clip-path="url(#9e1fa42a40)"><g clip-path="url(#d6159a2772)"><path fill="#e7eef6" d="M 442.289062 29.445312 C 434.355469 42.050781 417.425781 85.351562 419.003906 89.585938 C 420.886719 94.628906 426.015625 85.59375 438.085938 55.132812 C 445.351562 37.03125 451.070312 21.574219 450.84375 20.96875 C 450.019531 18.75 447.316406 21.367188 442.289062 29.445312 " fill-opacity="1" fill-rule="evenodd"/></g></g></g><g clip-path="url(#3af47babad)"><g clip-path="url(#6a1974b674)"><g clip-path="url(#ad0f668ab7)"><path fill="#e7eef6" d="M 291.023438 91.378906 C 293.253906 96.746094 321.382812 119.796875 325.035156 119.125 C 330.855469 118.101562 328.140625 114.519531 310.152344 100.78125 C 293.851562 88.484375 288.992188 85.933594 291.023438 91.378906 " fill-opacity="1" fill-rule="evenodd"/></g></g></g><g clip-path="url(#62587460b4)"><g clip-path="url(#3b4a05a617)"><g clip-path="url(#d9f167c77f)"><path fill="#e7eef6" d="M 210.675781 124.792969 C 210.296875 125.625 219.863281 128.484375 231.800781 130.925781 C 259.253906 136.769531 277.28125 141.988281 295.582031 149.175781 C 310.636719 155.046875 314.945312 155.507812 313.140625 150.667969 C 311.785156 147.039062 279.957031 136.855469 246.589844 129.3125 C 217.757812 122.839844 212.015625 122.226562 210.675781 124.792969 " fill-opacity="1" fill-rule="evenodd"/></g></g></g><g clip-path="url(#3e9beb07f7)"><g clip-path="url(#7e8a2fabac)"><g clip-path="url(#95f9a1a12d)"><path fill="#e7eef6" d="M 199.242188 165.585938 C 199.617188 166.59375 213.648438 166.640625 230.378906 165.914062 C 247.109375 165.191406 271.242188 165.835938 284.164062 167.21875 C 308.570312 169.832031 312.175781 169.636719 312.910156 165.457031 C 313.878906 160.042969 291.308594 157.433594 254.855469 158.851562 C 216.28125 160.148438 198.039062 162.355469 199.242188 165.585938 " fill-opacity="1" fill-rule="evenodd"/></g></g></g><g clip-path="url(#2257ab1cb9)"><g clip-path="url(#dc1d4e5e2b)"><g clip-path="url(#11d4234373)"><path fill="#e7eef6" d="M 437.503906 84.984375 C 429.878906 94.722656 429.167969 97.742188 433.828125 98.53125 C 436.773438 99.039062 449.484375 78.910156 448.277344 75.683594 C 447.226562 72.859375 445.308594 74.492188 437.503906 84.984375 " fill-opacity="1" fill-rule="evenodd"/></g></g></g><g clip-path="url(#f4d5241c52)"><g clip-path="url(#86169f14fe)"><g clip-path="url(#a445d35041)"><path fill="#e7eef6" d="M 371.550781 200.097656 C 373.589844 200.027344 375.753906 201.519531 376.355469 203.128906 C 376.957031 204.746094 381.285156 207.726562 385.917969 209.671875 L 394.074219 213.066406 L 389.886719 216.003906 C 381.839844 221.53125 366.351562 218.808594 363.289062 211.21875 C 362.6875 209.605469 363.398438 206.585938 364.890625 204.421875 C 367.921875 199.613281 367.191406 200.117188 371.550781 200.097656 Z M 395.234375 182.304688 C 393.972656 185.074219 391.027344 182.726562 391.867188 179.429688 C 392.246094 176.757812 392.652344 176.605469 394.285156 178.527344 C 395.214844 179.785156 395.617188 181.476562 395.234375 182.304688 Z M 365.734375 154.945312 C 368.535156 164.925781 367.265625 171.375 362.507812 169.703125 C 357.472656 167.90625 354.0625 158.148438 356.59375 152.609375 C 359.703125 146.167969 363.480469 147.054688 365.734375 154.945312 Z M 373.582031 105.152344 C 373.074219 106.257812 366.242188 109.5 358.503906 112.152344 C 349.277344 115.136719 342.394531 118.851562 339.4375 122.019531 C 332.496094 129.894531 326.246094 147.617188 327.234375 158.277344 C 327.625 163.644531 327.515625 170.117188 326.929688 172.863281 C 326.347656 175.609375 327.792969 183.796875 330.300781 191.136719 C 339.269531 217.652344 351.007812 233.71875 365.03125 239.289062 C 380.234375 245.5625 402.921875 238.019531 413.175781 223.628906 C 416.359375 219.222656 422.390625 212.609375 427.03125 209.039062 C 441.136719 197.578125 450.734375 168.496094 445.09375 153.371094 C 444.566406 151.960938 444.574219 146.441406 445.265625 140.902344 C 447.59375 121.886719 433.039062 105.03125 409.113281 98.789062 C 401.207031 96.683594 395.488281 96.753906 386.589844 99.378906 C 379.988281 101.382812 374.289062 103.96875 373.582031 105.152344 " fill-opacity="1" fill-rule="evenodd"/></g></g></g><g clip-path="url(#8eb218182a)"><g clip-path="url(#bbdb9261bd)"><g clip-path="url(#3740ce0e7a)"><path fill="#e7eef6" d="M 286.050781 240.027344 C 277.070312 246.136719 267.757812 256.273438 271.636719 256.203125 C 273.199219 256.078125 276.929688 253.769531 280.109375 251.203125 C 283.011719 248.515625 294.988281 242.441406 306.535156 237.675781 C 318.15625 233.109375 327.890625 229.019531 328.292969 228.867188 C 328.621094 228.519531 327.285156 227.40625 325.273438 226.316406 C 321.171875 223.945312 298.03125 232.117188 286.050781 240.027344 " fill-opacity="1" fill-rule="evenodd"/></g></g></g><g clip-path="url(#928bea5ddd)"><g clip-path="url(#b495e24399)"><g clip-path="url(#1b46f2084b)"><path fill="#e7eef6" d="M 309.679688 255.339844 C 303.695312 263.316406 296.796875 274.386719 294.066406 280 C 288.226562 292.058594 279.925781 325.246094 280.949219 332.910156 C 282.0625 343.289062 284.515625 339.386719 288.324219 321.886719 C 293.503906 298.816406 297.957031 287.96875 312.410156 263.28125 C 323.605469 244.632812 325.980469 238.691406 321.746094 240.269531 C 320.941406 240.570312 315.460938 247.441406 309.679688 255.339844 " fill-opacity="1" fill-rule="evenodd"/></g></g></g><g clip-path="url(#9f171aa41d)"><g clip-path="url(#0c6f7d9fdc)"><g clip-path="url(#7cd1342eaa)"><path fill="#e7eef6" d="M 333.742188 253.945312 C 326.101562 271.039062 323.0625 294.914062 328.910156 292.734375 C 329.917969 292.359375 332.679688 283.746094 335.320312 273.574219 C 337.957031 263.398438 341.273438 253.203125 342.359375 251.191406 C 343.574219 248.898438 344.308594 246.558594 343.933594 245.550781 C 342.578125 241.917969 337.28125 246.191406 333.742188 253.945312 " fill-opacity="1" fill-rule="evenodd"/></g></g></g><g clip-path="url(#d67b104d7b)"><g clip-path="url(#b0e889fc35)"><g clip-path="url(#a3ad191877)"><path fill="#e7eef6" d="M 438.265625 224.378906 C 437.300781 229.792969 460.402344 243.6875 466.652344 241.355469 C 470.285156 240.003906 466.839844 236.925781 453.625 229.214844 C 439.433594 220.726562 438.953125 220.675781 438.265625 224.378906 " fill-opacity="1" fill-rule="evenodd"/></g></g></g><g clip-path="url(#af28f81c5b)"><g clip-path="url(#ce4ba659e7)"><g clip-path="url(#b2427a0a02)"><path fill="#e7eef6" d="M 353.402344 261.085938 C 352.488281 264.179688 352.582031 268.742188 353.410156 270.960938 C 354.964844 274.515625 355.296875 274.164062 357.851562 267.46875 C 360.785156 259.941406 360.21875 253.488281 356.789062 254.769531 C 355.578125 255.21875 354.113281 258.0625 353.402344 261.085938 " fill-opacity="1" fill-rule="evenodd"/></g></g></g><g clip-path="url(#89efa7a9eb)"><g clip-path="url(#4600b06f8b)"><g clip-path="url(#5938a43f5c)"><path fill="#e7eef6" d="M 400.082031 263.660156 C 402.65625 274.878906 412.21875 294.972656 416.921875 298.960938 C 418.609375 300.402344 416.105469 291.226562 410.613281 276.503906 C 401.285156 251.496094 395.808594 244.8125 400.082031 263.660156 " fill-opacity="1" fill-rule="evenodd"/></g></g></g><g clip-path="url(#6897affaee)"><g clip-path="url(#fcc694b372)"><g clip-path="url(#71a8ba5570)"><path fill="#e7eef6" d="M 431.609375 242.253906 C 431.078125 244.519531 455.214844 270.433594 459.644531 272.460938 C 465.460938 275.113281 462.773438 270.375 449.925781 255.636719 C 437.078125 240.902344 432.601562 237.519531 431.609375 242.253906 " fill-opacity="1" fill-rule="evenodd"/></g></g></g><g clip-path="url(#cf98b54a99)"><g clip-path="url(#7dbb661057)"><g clip-path="url(#1c509bbee0)"><path fill="#e7eef6" d="M 419.210938 259.511719 C 428.347656 277.238281 443.328125 296.464844 458.269531 310.648438 C 466.367188 318.195312 473.941406 324.328125 474.972656 324.636719 C 478.949219 325.445312 473.523438 316.445312 463.894531 306.023438 C 448.050781 289.417969 434.503906 272.1875 426.894531 259.175781 C 421.96875 250.902344 419.128906 247.597656 416.910156 248.425781 C 414.492188 249.328125 414.839844 251.496094 419.210938 259.511719 " fill-opacity="1" fill-rule="evenodd"/></g></g></g><g clip-path="url(#f1d292e4f2)"><g clip-path="url(#44bbac1615)"><g clip-path="url(#db3306617b)"><path fill="#e7eef6" d="M 66.164062 227.625 C 60.09375 240.914062 77.046875 258.027344 91.160156 252.761719 C 100.238281 249.375 105.140625 239.738281 101.984375 231.265625 C 96.339844 216.136719 72.488281 213.78125 66.164062 227.625 " fill-opacity="1" fill-rule="evenodd"/></g></g></g><g clip-path="url(#2464b68bca)"><g clip-path="url(#fe9c8ce35a)"><g clip-path="url(#d9e31bf8f5)"><path fill="#e7eef6" d="M 105.015625 296.066406 C 99.789062 302.378906 107.183594 311.109375 115.046875 308.175781 C 121.703125 305.695312 119.734375 294.253906 112.453125 292.601562 C 108.878906 291.640625 108.347656 292.066406 105.015625 296.066406 " fill-opacity="1" fill-rule="evenodd"/></g></g></g></g></g></g></g><g clip-path="url(#d48bc90127)"><g mask="url(#d7d7a1e001)"><g transform="matrix(1, 0, 0, 1, 0, 0.000000000000055289)"><g clip-path="url(#16820e3f7a)"><g clip-path="url(#c5cacf4f5e)"><g clip-path="url(#105a5013df)"><g clip-path="url(#5da3e92eed)"><g clip-path="url(#9a98d26131)"><g clip-path="url(#5de69c0780)"><path fill="#e7eef6" d="M 48.023438 -174.957031 C 123.324219 -154.550781 140.707031 -146.898438 160.25 -126.015625 C 166.5 -119.207031 168.640625 -115.320312 169.898438 -107.191406 C 172.101562 -94.640625 169.074219 -86.714844 157.144531 -72.878906 C 152.003906 -67.066406 144.1875 -57.875 139.769531 -52.703125 C 135.140625 -47.472656 129.363281 -38.15625 126.726562 -32.113281 C 119.183594 -14.316406 121.125 -13.714844 139.726562 -28.425781 C 159.101562 -43.5625 185.1875 -56.910156 203.773438 -60.707031 C 217.257812 -63.601562 221.070312 -63.496094 230.199219 -60.121094 C 236.074219 -58.109375 244.1875 -52.683594 248.417969 -48.460938 C 255.777344 -40.832031 256.480469 -39.011719 264.410156 -8.15625 C 271.910156 21.917969 272.484375 25.777344 271.386719 45.210938 C 268.671875 92.238281 254.535156 108.664062 217.765625 107.691406 C 200.476562 107.140625 177.660156 99.140625 133.945312 78.632812 C 106.414062 65.421875 100.8125 64.453125 105.578125 73.210938 C 111.03125 82.902344 125.414062 92.683594 145.140625 99.941406 C 166.132812 107.75 177.507812 115.429688 190.1875 130.5625 C 199.578125 141.660156 201.820312 149.304688 200.3125 165.507812 C 198.738281 180.617188 191.488281 192.777344 170.015625 215.148438 C 153.433594 232.441406 146.515625 238.277344 123.324219 253.308594 C 102.207031 266.902344 93.210938 269.945312 77.632812 268.277344 C 49.507812 265.464844 43.246094 257.769531 34.824219 217.46875 C 31.859375 202.890625 29.246094 182.875 28.90625 173.171875 C 28.441406 153.703125 26.148438 142.507812 22.535156 141.460938 C 19.386719 140.511719 14.742188 164.222656 13.691406 187.210938 C 12.390625 210.929688 10.488281 217.222656 -1.566406 237.324219 C -15.5625 260.171875 -27.246094 269.046875 -45.707031 270.804688 C -57.230469 271.84375 -83.800781 256.378906 -94.167969 242.421875 C -98.3125 236.839844 -111.222656 224.21875 -122.941406 214.402344 C -153.09375 188.753906 -159.46875 180.640625 -163.003906 162.207031 C -166.210938 145.019531 -163.609375 136.316406 -150.4375 117.921875 C -138.183594 101.105469 -125.800781 89.816406 -115.664062 86.914062 C -111.082031 85.703125 -97.226562 83.378906 -84.976562 81.703125 C -61.734375 78.675781 -43.28125 72.691406 -38.246094 66.460938 C -35.421875 62.820312 -35.480469 62.613281 -39.925781 61.785156 C -42.335938 61.085938 -52.085938 62.105469 -61.460938 63.691406 C -84.90625 67.65625 -108.328125 69.171875 -124.792969 67.511719 C -142.414062 65.707031 -161.871094 55.265625 -166.863281 44.785156 C -176.054688 25.171875 -174.136719 4.628906 -160.09375 -30.695312 C -148.671875 -59.09375 -143.367188 -68.507812 -133.527344 -78.457031 C -129.148438 -82.953125 -119.210938 -93.371094 -111.230469 -101.933594 C -99.082031 -114.9375 -95.875 -117.121094 -90.496094 -116.984375 C -80.417969 -116.753906 -75.542969 -115.148438 -65.0625 -108.34375 C -53.472656 -100.71875 -48.8125 -95.71875 -34.867188 -75.800781 C -28.855469 -67.371094 -20.378906 -58.035156 -15.949219 -54.75 C -11.3125 -51.523438 -7.398438 -47.660156 -7.066406 -46.414062 C -6.296875 -43.5 0.90625 -39.835938 2.183594 -41.730469 C 2.4375 -42.46875 -1.210938 -53.75 -6.1875 -66.683594 C -18.039062 -98.058594 -22.503906 -127.601562 -18.449219 -148.488281 C -14.730469 -167.28125 -9.464844 -171.789062 15.101562 -177.390625 C 26.1875 -180.09375 30.523438 -179.683594 48.023438 -174.957031 Z M -15.746094 -184.601562 C -33.726562 -174.285156 -41.804688 -145.878906 -34.949219 -117.410156 C -33.621094 -111.53125 -32.265625 -103.871094 -32.21875 -100.324219 C -31.925781 -94.167969 -32.136719 -94.113281 -38.367188 -103.375 C -51.785156 -122.980469 -78.617188 -134.371094 -99.011719 -128.984375 C -107.597656 -126.9375 -111.527344 -124.121094 -121.730469 -113.855469 C -128.371094 -106.980469 -139.144531 -96.34375 -145.589844 -90.410156 C -161.011719 -76.316406 -171.34375 -56.441406 -180.921875 -22.746094 C -187.996094 2.722656 -188.933594 18.554688 -184.097656 36.871094 C -180.6875 49.773438 -178.644531 54.132812 -171.8125 61.453125 C -163.652344 70.429688 -153.171875 77.234375 -144.371094 79.359375 C -140.339844 80.300781 -140.953125 81.351562 -149.621094 88.984375 C -163.503906 101.335938 -172.460938 114.609375 -178.351562 131.082031 C -184.492188 148.289062 -184.46875 161.867188 -178.710938 178.601562 C -173.226562 194.292969 -164.003906 204.769531 -134.484375 229.695312 C -122.242188 239.820312 -110.175781 251.773438 -107.511719 255.964844 C -100.089844 268.03125 -80.019531 281.652344 -60.304688 288.019531 C -54.484375 289.820312 -49.214844 289.542969 -37.199219 286.144531 C -28.667969 283.890625 -19.839844 280.222656 -17.464844 278.257812 C -15.351562 276.144531 -6.882812 265.222656 1.003906 253.789062 L 15.664062 233.441406 L 18.964844 245.929688 C 26.9375 276.101562 49.191406 288.703125 86.140625 283.613281 C 105.472656 280.953125 116.6875 276.210938 142.832031 259.730469 C 169.699219 242.617188 197.566406 214.101562 210.671875 190.382812 C 221.222656 171.339844 221.171875 139.964844 210.574219 128.511719 C 207.132812 124.75 207.078125 124.539062 211 125.0625 C 227.371094 127.191406 251.730469 121.648438 265.1875 112.75 C 282.628906 101.238281 289.621094 81.359375 289.691406 43.714844 C 289.75 24.554688 288.558594 17.519531 280.785156 -13.59375 C 272.582031 -45.492188 271.011719 -49.75 264.746094 -57.449219 C 254.984375 -69.117188 242.457031 -76.9375 228.582031 -79.726562 C 218.421875 -81.941406 213.417969 -81.511719 199.058594 -77.714844 L 181.785156 -73.152344 L 186.59375 -84.441406 C 194.738281 -104.183594 190.023438 -121.191406 170.769531 -143.492188 C 149.933594 -167.59375 116.21875 -182.285156 52.136719 -195.632812 C 30.988281 -199.84375 29.835938 -199.984375 12.203125 -195.101562 C 2.007812 -192.40625 -10.359375 -187.804688 -15.746094 -184.601562 " fill-opacity="1" fill-rule="evenodd"/></g></g></g></g></g><g clip-path="url(#b28159ab86)"><g clip-path="url(#652e3877ff)"><g clip-path="url(#80463d5aaa)"><path fill="#e7eef6" d="M 19.84375 68.925781 C 21.882812 69.054688 23.886719 70.75 24.328125 72.414062 C 24.765625 74.078125 28.78125 77.472656 33.199219 79.867188 L 40.980469 84.046875 L 36.523438 86.558594 C 27.972656 91.265625 12.828125 87.03125 10.53125 79.175781 C 10.089844 77.511719 11.09375 74.578125 12.792969 72.570312 C 16.28125 68.085938 15.503906 68.511719 19.84375 68.925781 Z M 45.167969 53.550781 C 43.636719 56.183594 40.941406 53.554688 42.097656 50.355469 C 42.742188 47.734375 43.160156 47.625 44.597656 49.695312 C 45.398438 51.042969 45.628906 52.761719 45.167969 53.550781 Z M 18.507812 23.417969 C 20.3125 33.625 18.414062 39.914062 13.839844 37.785156 C 9.007812 35.5 6.578125 25.453125 9.640625 20.191406 C 13.371094 14.089844 17.042969 15.34375 18.507812 23.417969 Z M 31.222656 -25.359375 C 30.609375 -24.308594 23.492188 -21.757812 15.527344 -19.878906 C 6.054688 -17.820312 -1.164062 -14.800781 -4.414062 -11.9375 C -12.097656 -4.789062 -20.070312 12.234375 -20.132812 22.941406 C -20.273438 28.316406 -21.019531 34.75 -21.871094 37.421875 C -22.726562 40.097656 -22.09375 48.390625 -20.320312 55.9375 C -14.007812 83.210938 -3.910156 100.359375 9.496094 107.28125 C 24.007812 115.023438 47.328125 109.753906 58.949219 96.441406 C 62.550781 92.371094 69.207031 86.382812 74.175781 83.289062 C 89.34375 73.273438 101.757812 45.28125 97.636719 29.671875 C 97.25 28.214844 97.804688 22.726562 99.035156 17.277344 C 103.226562 -1.414062 90.402344 -19.625 67.210938 -28.1875 C 59.550781 -31.0625 53.851562 -31.5625 44.738281 -29.824219 C 37.96875 -28.480469 32.042969 -26.46875 31.222656 -25.359375 " fill-opacity="1" fill-rule="evenodd"/></g></g></g><g clip-path="url(#d8dc03e182)"><g clip-path="url(#b7b189625c)"><g clip-path="url(#408b890ddb)"><path fill="#e7eef6" d="M 124.535156 -0.8125 C 119.550781 1.394531 116.445312 7.335938 119.339844 9.023438 C 121.5 10.453125 138.25 -1.984375 136.507812 -3.53125 C 134.972656 -5.128906 134.347656 -4.960938 124.535156 -0.8125 " fill-opacity="1" fill-rule="evenodd"/></g></g></g><g clip-path="url(#3f37750507)"><g clip-path="url(#9dced0c8e5)"><g clip-path="url(#23a29adc98)"><path fill="#e7eef6" d="M 122.84375 17.222656 C 122.023438 18.332031 121.890625 20.367188 122.332031 22.035156 C 122.828125 23.90625 126.792969 23.75 137.199219 21 C 144.898438 18.964844 157.144531 17.289062 164.453125 17.140625 C 180.371094 16.71875 180.996094 16.554688 180.390625 14.261719 C 178.960938 8.851562 125.796875 11.546875 122.84375 17.222656 " fill-opacity="1" fill-rule="evenodd"/></g></g></g><g clip-path="url(#e98b397ae7)"><g clip-path="url(#822a8f831a)"><g clip-path="url(#e6f529c5f4)"><path fill="#e7eef6" d="M 122.675781 35.96875 C 121.878906 38.851562 125.441406 39.691406 138.804688 39.722656 C 161.722656 39.675781 160.582031 36.195312 137.484375 34.726562 C 129.597656 34.363281 123.027344 34.761719 122.675781 35.96875 " fill-opacity="1" fill-rule="evenodd"/></g></g></g><g clip-path="url(#ca01a8fdad)"><g clip-path="url(#f9ef52a1ec)"><g clip-path="url(#d22f84b969)"><path fill="#e7eef6" d="M 117.324219 53.632812 C 118.535156 58.210938 125.460938 60.835938 149.808594 66.203125 C 173.6875 71.46875 202.523438 72.757812 215.632812 69.292969 C 226.875 66.324219 224.230469 63.90625 210.820312 64.554688 C 193.238281 65.414062 165.097656 61.71875 141.625 55.449219 C 119.359375 49.535156 116.167969 49.265625 117.324219 53.632812 " fill-opacity="1" fill-rule="evenodd"/></g></g></g><g clip-path="url(#27ebf75f14)"><g clip-path="url(#6e74cf98fa)"><g clip-path="url(#4a0ff79ca9)"><path fill="#e7eef6" d="M 83.84375 99.660156 C 82.351562 104.953125 103.96875 121.058594 110.421875 119.351562 C 114.167969 118.363281 111.042969 114.960938 98.652344 105.988281 C 85.367188 96.140625 84.894531 96.042969 83.84375 99.660156 " fill-opacity="1" fill-rule="evenodd"/></g></g></g><g clip-path="url(#be3a3421e9)"><g clip-path="url(#4d44cdc789)"><g clip-path="url(#b203a0543a)"><path fill="#e7eef6" d="M -4.222656 127.824219 C -5.4375 130.816406 -5.792969 135.363281 -5.1875 137.652344 C -3.992188 141.34375 -3.628906 141.027344 -0.425781 134.613281 C 3.234375 127.414062 3.308594 120.9375 -0.230469 121.871094 C -1.480469 122.203125 -3.21875 124.886719 -4.222656 127.824219 " fill-opacity="1" fill-rule="evenodd"/></g></g></g><g clip-path="url(#f502f9e09e)"><g clip-path="url(#8778fd44af)"><g clip-path="url(#55144cfd2c)"><path fill="#e7eef6" d="M 41.972656 134.988281 C 43.433594 146.402344 50.964844 167.34375 55.253906 171.777344 C 56.789062 173.375 55.203125 163.996094 51.1875 148.804688 C 44.371094 123 39.578125 115.808594 41.972656 134.988281 " fill-opacity="1" fill-rule="evenodd"/></g></g></g><g clip-path="url(#ab89581513)"><g clip-path="url(#8dcbffe0b8)"><g clip-path="url(#14effbd153)"><path fill="#e7eef6" d="M 75.457031 116.792969 C 74.703125 118.996094 96.171875 147.164062 100.378906 149.613281 C 105.90625 152.828125 103.699219 147.84375 92.367188 131.914062 C 81.03125 115.988281 76.910156 112.175781 75.457031 116.792969 " fill-opacity="1" fill-rule="evenodd"/></g></g></g><g clip-path="url(#540169052a)"><g clip-path="url(#05cd87d7f5)"><g clip-path="url(#95449189bd)"><path fill="#e7eef6" d="M 61.417969 132.746094 C 68.765625 151.285156 81.777344 171.894531 95.246094 187.480469 C 102.5625 195.789062 109.496094 202.640625 110.492188 203.046875 C 114.367188 204.246094 109.859375 194.75 101.300781 183.429688 C 87.171875 165.347656 75.386719 146.863281 69.097656 133.167969 C 65.011719 124.449219 62.511719 120.878906 60.222656 121.484375 C 57.726562 122.144531 57.859375 124.335938 61.417969 132.746094 " fill-opacity="1" fill-rule="evenodd"/></g></g></g><g clip-path="url(#ab70465d2c)"><g clip-path="url(#c5c26220ee)"><g clip-path="url(#b79b213d8c)"><path fill="#e7eef6" d="M 295.53125 176.199219 C 291.1875 183.355469 291.320312 185.546875 296.355469 191.117188 C 301.28125 196.273438 304.214844 197.28125 310.875 195.519531 C 322.320312 192.496094 323.378906 173.738281 312.308594 169.761719 C 304.4375 166.945312 299.761719 168.625 295.53125 176.199219 " fill-opacity="1" fill-rule="evenodd"/></g></g></g></g></g></g></g></svg>