<svg xmlns="http://www.w3.org/2000/svg" xmlns:xlink="http://www.w3.org/1999/xlink" width="1366" zoomAndPan="magnify" viewBox="0 0 1024.5 700" height="768" preserveAspectRatio="xMidYMid meet" version="1.0"><defs><g/></defs><g fill="#000000" fill-opacity="1"><g transform="translate(131.11455, 314.575264)"><g><path d="M 106.398438 -148.914062 C 106.398438 -136.578125 112.347656 -105.738281 112.347656 -86.351562 C 112.347656 -50.226562 107.28125 -19.605469 99.570312 14.539062 C 97.808594 22.027344 82.167969 90.757812 70.492188 90.757812 C 63.222656 90.757812 57.496094 51.546875 56.394531 44.71875 C 54.410156 29.738281 53.53125 16.960938 51.988281 4.625 L 47.140625 -65.867188 C 47.140625 -75.117188 43.617188 -110.585938 37.890625 -116.3125 C 36.566406 -117.414062 35.027344 -118.074219 33.703125 -118.074219 C 31.722656 -118.074219 29.519531 -116.972656 28.195312 -115.210938 C 20.488281 -105.738281 4.625 -20.707031 2.421875 -5.726562 C -0.660156 17.625 -5.285156 64.105469 -3.964844 86.132812 L -2.863281 101.992188 C -2.421875 106.179688 -2.203125 107.941406 1.320312 107.941406 C 5.949219 107.941406 3.085938 96.046875 3.085938 87.453125 C 3.085938 60.140625 4.183594 50.445312 6.609375 24.011719 C 8.8125 -3.746094 20.707031 -66.527344 28.859375 -94.722656 C 29.738281 -98.25 31.0625 -101.554688 31.941406 -105.078125 C 35.027344 -102.65625 36.566406 -69.390625 36.566406 -65.207031 C 36.566406 -61.679688 37.007812 -61.019531 37.230469 -58.375 C 37.230469 -55.734375 37.007812 -53.308594 37.230469 -50.667969 C 38.332031 -42.296875 38.550781 -31.722656 39.210938 -22.46875 C 40.753906 -2.863281 49.125 98.027344 69.171875 98.027344 L 71.8125 98.027344 C 79.523438 98.027344 85.914062 83.269531 88.554688 76.878906 C 101.332031 44.9375 115.652344 -21.367188 118.296875 -56.613281 L 119.175781 -75.117188 C 119.394531 -78.644531 120.058594 -79.523438 119.394531 -84.148438 C 118.957031 -87.234375 119.175781 -89.65625 119.175781 -92.960938 C 119.175781 -96.925781 118.515625 -98.910156 118.296875 -102.214844 C 118.074219 -108.824219 114.992188 -128.867188 113.890625 -136.359375 C 113.449219 -139.882812 113.226562 -141.425781 113.007812 -144.730469 C 112.566406 -147.375 113.007812 -151.558594 109.703125 -151.558594 C 108.382812 -151.558594 106.398438 -149.796875 106.398438 -148.914062 Z M 106.398438 -148.914062 "/></g></g></g><g fill="#000000" fill-opacity="1"><g transform="translate(257.988912, 314.575264)"><g><path d="M 0 -22.25 C 0 -14.320312 0.660156 -10.574219 8.8125 -10.574219 C 15.199219 -10.574219 22.027344 -31.28125 26.214844 -34.144531 C 26.214844 -24.671875 33.261719 -13.21875 44.277344 -13.21875 C 48.023438 -13.21875 52.207031 -14.539062 56.613281 -17.625 L 63.222656 -22.910156 C 74.457031 -33.703125 73.136719 -39.210938 69.832031 -39.210938 C 68.507812 -39.210938 66.96875 -38.550781 65.867188 -37.007812 C 62.78125 -33.703125 62.121094 -31.722656 57.9375 -27.976562 C 53.089844 -23.128906 48.464844 -20.488281 44.277344 -20.488281 C 39.652344 -20.488281 35.6875 -24.011719 33.925781 -31.941406 C 31.941406 -40.3125 35.6875 -50.226562 27.976562 -50.226562 C 25.113281 -50.226562 16.082031 -31.5 11.675781 -24.671875 L 9.914062 -22.027344 C 8.8125 -20.707031 9.472656 -21.589844 8.8125 -20.925781 C 8.8125 -28.195312 11.894531 -36.566406 14.757812 -41.195312 C 21.148438 -52.207031 25.554688 -55.292969 28.859375 -55.292969 C 33.042969 -55.292969 35.6875 -50.226562 38.769531 -50.226562 C 44.5 -50.226562 38.769531 -62.78125 28.417969 -62.78125 C 12.996094 -62.78125 0 -34.804688 0 -22.25 Z M 0 -22.25 "/></g></g></g><g fill="#000000" fill-opacity="1"><g transform="translate(321.866628, 314.575264)"><g><path d="M -61.902344 -98.25 C -61.902344 -95.164062 -59.699219 -94.503906 -57.273438 -94.503906 C -55.953125 -94.503906 -54.632812 -94.722656 -53.53125 -94.945312 C -51.546875 -99.128906 -53.75 -98.25 -48.242188 -100.453125 C -45.601562 -101.554688 -43.617188 -103.09375 -40.972656 -104.195312 C -27.316406 -109.484375 -14.757812 -113.226562 -0.21875 -116.753906 C 1.984375 -117.414062 7.050781 -118.296875 8.371094 -118.734375 L 6.386719 -98.25 C 6.167969 -95.386719 5.949219 -90.539062 5.507812 -87.675781 C 4.40625 -81.285156 4.183594 -51.546875 4.183594 -43.175781 L 3.523438 -32.824219 C 3.523438 -16.742188 2.863281 9.472656 4.183594 25.332031 C 4.183594 30.621094 4.40625 38.550781 10.132812 38.550781 C 15.859375 38.550781 12.554688 23.351562 12.554688 18.285156 C 12.117188 8.589844 12.335938 -35.464844 12.996094 -42.074219 C 13.4375 -46.703125 12.996094 -56.613281 12.996094 -63.003906 C 12.996094 -66.085938 13.65625 -66.085938 13.65625 -68.949219 C 13.65625 -71.152344 13.4375 -73.796875 13.65625 -75.777344 L 18.0625 -120.9375 C 23.351562 -122.039062 56.835938 -128.429688 68.949219 -128.429688 C 70.492188 -128.429688 71.59375 -128.429688 72.476562 -128.207031 C 75.117188 -127.546875 74.457031 -128.429688 75.117188 -126.226562 C 83.488281 -126.226562 80.847656 -135.035156 70.492188 -135.035156 C 57.054688 -135.035156 44.058594 -132.835938 31.28125 -130.410156 C 27.976562 -129.96875 23.351562 -128.648438 19.824219 -128.648438 C 19.824219 -135.699219 24.230469 -129.96875 24.230469 -135.699219 C 24.230469 -137.019531 24.011719 -137.902344 24.011719 -138.5625 C 23.792969 -140.765625 24.230469 -139.003906 24.230469 -141.644531 C 24.230469 -145.171875 22.46875 -148.035156 20.046875 -148.035156 C 17.183594 -148.035156 13.65625 -144.070312 11.453125 -132.171875 C 9.914062 -124.683594 10.574219 -126.664062 1.320312 -124.242188 C -11.234375 -120.71875 -61.902344 -108.160156 -61.902344 -98.25 Z M -61.902344 -98.25 "/></g></g></g><g fill="#000000" fill-opacity="1"><g transform="translate(347.417714, 314.575264)"><g><path d="M 0 -22.25 C 0 -14.320312 0.660156 -10.574219 8.8125 -10.574219 C 15.199219 -10.574219 22.027344 -31.28125 26.214844 -34.144531 C 26.214844 -24.671875 33.261719 -13.21875 44.277344 -13.21875 C 48.023438 -13.21875 52.207031 -14.539062 56.613281 -17.625 L 63.222656 -22.910156 C 74.457031 -33.703125 73.136719 -39.210938 69.832031 -39.210938 C 68.507812 -39.210938 66.96875 -38.550781 65.867188 -37.007812 C 62.78125 -33.703125 62.121094 -31.722656 57.9375 -27.976562 C 53.089844 -23.128906 48.464844 -20.488281 44.277344 -20.488281 C 39.652344 -20.488281 35.6875 -24.011719 33.925781 -31.941406 C 31.941406 -40.3125 35.6875 -50.226562 27.976562 -50.226562 C 25.113281 -50.226562 16.082031 -31.5 11.675781 -24.671875 L 9.914062 -22.027344 C 8.8125 -20.707031 9.472656 -21.589844 8.8125 -20.925781 C 8.8125 -28.195312 11.894531 -36.566406 14.757812 -41.195312 C 21.148438 -52.207031 25.554688 -55.292969 28.859375 -55.292969 C 33.042969 -55.292969 35.6875 -50.226562 38.769531 -50.226562 C 44.5 -50.226562 38.769531 -62.78125 28.417969 -62.78125 C 12.996094 -62.78125 0 -34.804688 0 -22.25 Z M 0 -22.25 "/></g></g></g><g fill="#000000" fill-opacity="1"><g transform="translate(411.29543, 314.575264)"><g><path d="M 0.441406 -16.960938 C 0.441406 -2.644531 0.882812 24.453125 12.777344 24.453125 C 18.285156 24.453125 22.46875 16.082031 24.894531 12.335938 C 29.738281 4.183594 35.6875 -11.234375 40.3125 -20.707031 C 41.414062 -22.910156 48.242188 -35.6875 48.242188 -37.007812 C 48.242188 -38.109375 47.363281 -39.433594 46.261719 -39.433594 C 45.160156 -39.433594 43.835938 -38.550781 42.515625 -35.90625 C 35.464844 -23.351562 29.078125 -7.929688 22.46875 4.847656 C 20.046875 9.914062 16.960938 15.859375 12.117188 18.503906 C 2.203125 -0.441406 14.539062 -68.949219 20.707031 -91.199219 C 21.367188 -93.402344 27.09375 -106.179688 19.824219 -106.179688 C 14.097656 -106.179688 12.117188 -95.164062 10.132812 -88.777344 C 4.625 -68.507812 0.441406 -38.769531 0.441406 -16.960938 Z M 0.441406 -16.960938 "/></g></g></g><g fill="#000000" fill-opacity="1"><g transform="translate(450.062596, 314.575264)"><g><path d="M 18.285156 0.882812 C 28.636719 0.882812 37.007812 -8.8125 42.296875 -14.320312 C 45.820312 -17.84375 59.039062 -32.601562 59.039062 -36.789062 C 59.039062 -38.769531 58.375 -39.433594 57.496094 -39.433594 C 53.308594 -39.433594 41.632812 -23.792969 40.753906 -22.691406 C 37.449219 -18.503906 25.992188 -6.828125 18.945312 -6.828125 C 12.996094 -6.828125 10.574219 -19.824219 10.574219 -26.433594 C 10.574219 -48.902344 19.386719 -58.816406 9.253906 -58.816406 C 4.847656 -58.816406 2.644531 -48.902344 1.984375 -44.277344 C -0.441406 -33.042969 0 -17.84375 5.285156 -7.929688 C 7.710938 -3.746094 12.335938 0.882812 18.285156 0.882812 Z M 11.234375 -86.574219 C 11.234375 -81.726562 14.097656 -79.523438 17.183594 -79.523438 C 21.589844 -79.523438 26.214844 -84.371094 22.027344 -92.519531 C 20.707031 -94.945312 19.164062 -95.824219 17.625 -95.824219 C 14.320312 -95.824219 11.234375 -91.640625 11.234375 -86.574219 Z M 11.234375 -86.574219 "/></g></g></g><g fill="#000000" fill-opacity="1"><g transform="translate(500.283697, 314.575264)"><g><path d="M 0 -22.25 C 0 -14.320312 0.660156 -10.574219 8.8125 -10.574219 C 15.199219 -10.574219 22.027344 -31.28125 26.214844 -34.144531 C 26.214844 -24.671875 33.261719 -13.21875 44.277344 -13.21875 C 48.023438 -13.21875 52.207031 -14.539062 56.613281 -17.625 L 63.222656 -22.910156 C 74.457031 -33.703125 73.136719 -39.210938 69.832031 -39.210938 C 68.507812 -39.210938 66.96875 -38.550781 65.867188 -37.007812 C 62.78125 -33.703125 62.121094 -31.722656 57.9375 -27.976562 C 53.089844 -23.128906 48.464844 -20.488281 44.277344 -20.488281 C 39.652344 -20.488281 35.6875 -24.011719 33.925781 -31.941406 C 31.941406 -40.3125 35.6875 -50.226562 27.976562 -50.226562 C 25.113281 -50.226562 16.082031 -31.5 11.675781 -24.671875 L 9.914062 -22.027344 C 8.8125 -20.707031 9.472656 -21.589844 8.8125 -20.925781 C 8.8125 -28.195312 11.894531 -36.566406 14.757812 -41.195312 C 21.148438 -52.207031 25.554688 -55.292969 28.859375 -55.292969 C 33.042969 -55.292969 35.6875 -50.226562 38.769531 -50.226562 C 44.5 -50.226562 38.769531 -62.78125 28.417969 -62.78125 C 12.996094 -62.78125 0 -34.804688 0 -22.25 Z M 0 -22.25 "/></g></g></g><g fill="#000000" fill-opacity="1"><g transform="translate(564.176482, 314.575264)"><g/></g></g><g fill="#000000" fill-opacity="1"><g transform="translate(503.483777, 313.014082)"><g><path d="M 109.273438 8.707031 L 108.855469 7.671875 C 105.746094 -1.867188 107.40625 -9.539062 97.039062 -35.25 C 86.671875 -61.375 69.460938 -81.28125 47.066406 -98.074219 L 22.808594 -115.699219 C 19.90625 -117.773438 16.378906 -119.433594 15.34375 -122.957031 C 18.660156 -127.933594 34.210938 -132.496094 41.46875 -134.777344 C 51.421875 -137.679688 60.960938 -140.375 71.121094 -143.070312 C 82.9375 -145.765625 122.957031 -155.304688 135.191406 -155.304688 C 122.75 -101.808594 118.1875 -65.3125 111.554688 -12.855469 Z M 8.292969 -124.410156 C 8.292969 -119.226562 11.195312 -116.527344 14.308594 -114.25 L 33.175781 -100.769531 C 43.957031 -92.683594 59.921875 -81.695312 68.632812 -70.707031 C 81.902344 -53.910156 90.816406 -39.601562 97.246094 -16.585938 C 101.808594 -0.207031 105.746094 23.015625 105.746094 40.847656 L 102.222656 99.734375 C 103.671875 100.5625 104.089844 101.808594 105.746094 101.808594 C 110.308594 101.808594 110.101562 92.683594 110.515625 88.539062 L 117.359375 21.148438 C 118.1875 14.929688 118.394531 9.953125 119.226562 3.941406 C 122.335938 -18.246094 124.410156 -38.980469 128.140625 -61.996094 L 139.335938 -125.238281 C 139.960938 -129.175781 144.730469 -154.679688 145.558594 -156.546875 C 153.230469 -156.546875 158 -157.375 165.257812 -157.375 C 180.808594 -157.375 212.53125 -152.816406 228.910156 -148.875 C 233.265625 -147.632812 236.167969 -146.800781 238.035156 -146.800781 C 239.695312 -146.800781 240.316406 -147.632812 240.316406 -150.328125 C 240.316406 -159.035156 177.695312 -165.046875 169.402344 -165.878906 C 168.160156 -165.878906 167.121094 -165.878906 165.671875 -165.878906 C 160.902344 -165.878906 155.304688 -165.671875 150.949219 -165.671875 C 149.703125 -165.671875 148.667969 -165.671875 147.632812 -165.671875 C 141.824219 -166.085938 146.386719 -167.742188 140.789062 -167.742188 C 137.265625 -167.742188 140.167969 -165.046875 133.738281 -164.425781 C 100.148438 -160.902344 66.558594 -153.230469 34.628906 -142.242188 L 19.285156 -135.8125 C 15.964844 -133.738281 8.292969 -129.175781 8.292969 -124.410156 Z M 8.292969 -124.410156 "/></g></g></g><g fill="#000000" fill-opacity="1"><g transform="translate(640.320314, 313.014082)"><g><path d="M 9.539062 -37.53125 C 10.988281 -42.714844 17.832031 -50.800781 23.429688 -51.835938 C 22.808594 -45.203125 14.722656 -40.226562 9.539062 -37.53125 Z M 0.207031 -32.554688 C 0.207031 -26.746094 0 -21.5625 4.976562 -16.585938 C 8.5 -13.0625 12.648438 -11.613281 17.003906 -11.613281 C 29.652344 -11.613281 43.957031 -24.257812 51.628906 -31.929688 C 53.496094 -34.210938 53.496094 -34.417969 52.875 -37.53125 C 46.652344 -37.53125 49.972656 -36.699219 41.46875 -30.066406 C 40.019531 -29.027344 39.394531 -28.199219 37.738281 -26.957031 C 33.589844 -23.84375 24.882812 -17.832031 17.625 -17.832031 C 15.136719 -17.832031 12.648438 -18.660156 10.78125 -20.527344 C 7.257812 -24.050781 7.671875 -27.371094 7.671875 -31.722656 C 14.101562 -32.140625 21.5625 -38.152344 24.882812 -41.882812 C 31.308594 -49.972656 31.308594 -58.265625 22.1875 -58.265625 C 12.234375 -58.265625 0.207031 -42.921875 0.207031 -32.554688 Z M 0.207031 -32.554688 "/></g></g></g><g fill="#000000" fill-opacity="1"><g transform="translate(685.310522, 313.014082)"><g><path d="M -36.492188 77.546875 C -36.492188 57.644531 -30.066406 46.445312 -20.527344 32.140625 C -15.136719 24.257812 0 6.429688 6.429688 2.28125 C 6.429688 30.894531 3.730469 62.410156 -9.332031 82.9375 C -15.136719 91.855469 -20.320312 95.171875 -24.882812 95.171875 C -31.929688 95.171875 -36.492188 86.671875 -36.492188 77.546875 Z M 4.976562 -85.632812 C 4.976562 -81.695312 6.84375 -80.242188 8.914062 -80.242188 C 11.402344 -80.242188 14.308594 -82.523438 14.308594 -85.21875 C 14.308594 -90.816406 12.648438 -92.683594 10.78125 -92.683594 C 8.085938 -92.683594 4.976562 -88.746094 4.976562 -85.632812 Z M -42.089844 71.949219 C -42.089844 80.65625 -42.300781 88.953125 -35.664062 96 C -32.554688 99.320312 -29.234375 101.394531 -24.675781 101.394531 C -11.613281 101.394531 -1.035156 86.050781 3.316406 75.265625 C 13.890625 50.800781 16.171875 27.578125 16.171875 -6.84375 C 21.148438 -10.367188 35.25 -22.1875 41.054688 -26.746094 L 47.273438 -31.722656 C 48.726562 -32.96875 49.140625 -32.140625 49.140625 -34.835938 C 49.140625 -36.492188 48.519531 -37.113281 47.484375 -37.113281 C 43.75 -37.113281 35.042969 -29.027344 32.140625 -26.746094 L 15.550781 -13.683594 C 15.550781 -20.113281 14.722656 -57.226562 7.464844 -57.226562 C 0.621094 -57.226562 -1.453125 -49.761719 0.621094 -47.691406 C 1.660156 -46.652344 2.074219 -46.652344 3.316406 -46.652344 C 3.523438 -46.652344 3.730469 -46.445312 4.355469 -45.203125 C 4.355469 -44.578125 5.390625 -24.675781 5.597656 -22.394531 C 6.011719 -18.660156 5.390625 -14.308594 5.804688 -10.574219 C 6.429688 -4.5625 7.257812 -6.84375 3.109375 -2.695312 L -11.820312 12.234375 C -25.503906 25.917969 -42.089844 52.457031 -42.089844 71.949219 Z M -42.089844 71.949219 "/></g></g></g><g fill="#000000" fill-opacity="1"><g transform="translate(726.15417, 313.014082)"><g><path d="M 0 -20.941406 C 0 -13.476562 0.621094 -9.953125 8.292969 -9.953125 C 14.308594 -9.953125 20.734375 -29.441406 24.675781 -32.140625 C 24.675781 -23.222656 31.308594 -12.441406 41.675781 -12.441406 C 45.203125 -12.441406 49.140625 -13.683594 53.289062 -16.585938 L 59.507812 -21.5625 C 70.082031 -31.722656 68.839844 -36.90625 65.730469 -36.90625 C 64.484375 -36.90625 63.035156 -36.285156 61.996094 -34.835938 C 59.09375 -31.722656 58.472656 -29.859375 54.53125 -26.332031 C 49.972656 -21.769531 45.617188 -19.285156 41.675781 -19.285156 C 37.324219 -19.285156 33.589844 -22.601562 31.929688 -30.066406 C 30.066406 -37.945312 33.589844 -47.273438 26.332031 -47.273438 C 23.636719 -47.273438 15.136719 -29.652344 10.988281 -23.222656 L 9.332031 -20.734375 C 8.292969 -19.492188 8.914062 -20.320312 8.292969 -19.699219 C 8.292969 -26.539062 11.195312 -34.417969 13.890625 -38.773438 C 19.90625 -49.140625 24.050781 -52.042969 27.164062 -52.042969 C 31.101562 -52.042969 33.589844 -47.273438 36.492188 -47.273438 C 41.882812 -47.273438 36.492188 -59.09375 26.746094 -59.09375 C 12.234375 -59.09375 0 -32.761719 0 -20.941406 Z M 0 -20.941406 "/></g></g></g><g fill="#000000" fill-opacity="1"><g transform="translate(786.279314, 313.014082)"><g><path d="M 7.257812 -15.136719 C 7.257812 -27.992188 11.613281 -41.882812 18.867188 -50.800781 C 20.941406 -53.703125 23.222656 -56.398438 27.992188 -57.019531 C 27.785156 -53.910156 12.648438 -13.269531 8.085938 -13.269531 C 7.464844 -13.269531 7.257812 -13.683594 7.257812 -15.136719 Z M 30.894531 -62.617188 C 27.785156 -62.617188 29.027344 -63.242188 26.746094 -63.242188 C 7.878906 -63.242188 -10.160156 -6.011719 7.257812 -6.011719 C 15.136719 -6.011719 19.074219 -16.378906 21.980469 -22.808594 L 29.234375 -40.433594 C 29.859375 -42.300781 29.652344 -41.882812 30.894531 -43.128906 C 30.894531 -34.835938 26.957031 34.835938 36.285156 34.835938 C 43.75 34.835938 38.566406 30.273438 38.359375 16.796875 C 37.945312 -18.039062 35.25 -54.53125 45.410156 -88.328125 C 46.652344 -93.304688 54.324219 -114.042969 46.652344 -114.042969 C 46.445312 -114.042969 46.03125 -113.832031 45.617188 -113.832031 C 40.640625 -112.796875 38.359375 -98.074219 37.324219 -93.722656 L 32.96875 -70.289062 C 32.140625 -67.59375 30.894531 -65.523438 30.894531 -62.617188 Z M 30.894531 -62.617188 "/></g></g></g><g fill="#000000" fill-opacity="1"><g transform="translate(832.720804, 313.014082)"><g><path d="M 0 -20.941406 C 0 -13.476562 0.621094 -9.953125 8.292969 -9.953125 C 14.308594 -9.953125 20.734375 -29.441406 24.675781 -32.140625 C 24.675781 -23.222656 31.308594 -12.441406 41.675781 -12.441406 C 45.203125 -12.441406 49.140625 -13.683594 53.289062 -16.585938 L 59.507812 -21.5625 C 70.082031 -31.722656 68.839844 -36.90625 65.730469 -36.90625 C 64.484375 -36.90625 63.035156 -36.285156 61.996094 -34.835938 C 59.09375 -31.722656 58.472656 -29.859375 54.53125 -26.332031 C 49.972656 -21.769531 45.617188 -19.285156 41.675781 -19.285156 C 37.324219 -19.285156 33.589844 -22.601562 31.929688 -30.066406 C 30.066406 -37.945312 33.589844 -47.273438 26.332031 -47.273438 C 23.636719 -47.273438 15.136719 -29.652344 10.988281 -23.222656 L 9.332031 -20.734375 C 8.292969 -19.492188 8.914062 -20.320312 8.292969 -19.699219 C 8.292969 -26.539062 11.195312 -34.417969 13.890625 -38.773438 C 19.90625 -49.140625 24.050781 -52.042969 27.164062 -52.042969 C 31.101562 -52.042969 33.589844 -47.273438 36.492188 -47.273438 C 41.882812 -47.273438 36.492188 -59.09375 26.746094 -59.09375 C 12.234375 -59.09375 0 -32.761719 0 -20.941406 Z M 0 -20.941406 "/></g></g></g></svg>